{"title":"Sister Act-720p MP4 AAC x264 BRRip 1992-CC","uid":7225008,"size":2033229910,"categoryP":"video","categoryS":"hd___movies","magnet":"?xt=urn:btih:5952441820a48e678097c0726dce318360fe9afc&amp;dn=Sister+Act-720p+MP4+AAC+x264+BRRip+1992-CC&amp;tr=udp%3A%2F%2Ftracker.openbittorrent.com%3A80&amp;tr=udp%3A%2F%2Fopen.demonii.com%3A1337&amp;tr=udp%3A%2F%2Ftracker.coppersurfer.tk%3A6969&amp;tr=udp%3A%2F%2Fexodus.desync.com%3A6969","seeders":2,"leechers":1,"uploader":"Caveman44","files":-1,"time":1335644328,"description":"Source: Sister.Act.1992.720p.BluRay.x264-CiNEFiLE\n\nSubs: Danish, Dutch, English.\n\nSample and Screens included.\n\nGeneral\nComplete name                    : Sister Act-720p MP4 AAC x264 BRRip 1992-CC.mp4\nFormat                           : MPEG-4\nFormat profile                   : Base Media\nCodec ID                         : isom\nFile size                        : 1.87 GiB\nDuration                         : 1h 40mn\nOverall bit rate                 : 2 663 Kbps\nEncoded date                     : UTC 2012-04-27 09:23:42\n\nVideo\nID                               : 1\nFormat                           : AVC\nFormat/Info                      : Advanced Video Codec\nFormat profile                   : &lt;a class=&quot;__cf_email__&quot; href=&quot;/cdn-cgi/l/email-protection&quot; data-cfemail=&quot;e3ab8a848ba3afd0cdd2&quot;&gt;[email&amp;#160;protected]&lt;/a&gt;&lt;script cf-hash='f9e31' type=&quot;text/javascript&quot;&gt;\n/* &lt;![CDATA[ */!function(){try{var t=&quot;currentScript&quot;in document?document.currentScript:function(){for(var t=document.getElementsByTagName(&quot;script&quot;),e=t.length;e--;)if(t[e].getAttribute(&quot;cf-hash&quot;))return t[e]}();if(t&amp;&amp;t.previousSibling){var e,r,n,i,c=t.previousSibling,a=c.getAttribute(&quot;data-cfemail&quot;);if(a){for(e=&quot;&quot;,r=parseInt(a.substr(0,2),16),n=2;a.length-n;n+=2)i=parseInt(a.substr(n,2),16)^r,e+=String.fromCharCode(i);e=document.createTextNode(e),c.parentNode.replaceChild(e,c)}}}catch(u){}}();/* ]]&gt; */&lt;/script&gt;\nFormat settings, CABAC           : Yes\nFormat settings, ReFrames        : 5 frames\nCodec ID                         : avc1\nCodec ID/Info                    : Advanced Video Coding\nDuration                         : 1h 40mn\nBit rate mode                    : Variable\nBit rate                         : 2 274 Kbps\nNominal bit rate                 : 2 301 Kbps\nMaximum bit rate                 : 10.1 Mbps\nWidth                            : 1 280 pixels\nHeight                           : 688 pixels\nDisplay aspect ratio             : 1.860\nFrame rate mode                  : Variable\nFrame rate                       : 23.976 fps\nMinimum frame rate               : 23.810 fps\nMaximum frame rate               : 24.390 fps\nResolution                       : 24 bits\nColorimetry                      : 4:2:0\nScan type                        : Progressive\nBits/(Pixel*Frame)               : 0.108\nStream size                      : 1.59 GiB (85%)\nWriting library                  : x264 core 112\n\n\nAudio\nID                               : 2\nFormat                           : AAC\nFormat/Info                      : Advanced Audio Codec\nFormat version                   : Version 4\nFormat profile                   : LC\nFormat settings, SBR             : No\nCodec ID                         : 40\nDuration                         : 1h 40mn\nBit rate mode                    : Variable\nBit rate                         : 384 Kbps\nMaximum bit rate                 : 619 Kbps\nChannel(s)                       : 6 channels\nChannel positions                : Front: L C R, Rear: L R, LFE\nSampling rate                    : 48.0 KHz\nResolution                       : 16 bits\nStream size                      : 275 MiB (14%)\nLanguage                         : English\n\nEnjoy...\n\nRequested by eidref.\n\n","torrent":{"xt":"urn:btih:5952441820a48e678097c0726dce318360fe9afc","amp;dn":"Sister+Act-720p+MP4+AAC+x264+BRRip+1992-CC","amp;tr":["udp%3A%2F%2Ftracker.openbittorrent.com%3A80","udp%3A%2F%2Fopen.demonii.com%3A1337","udp%3A%2F%2Ftracker.coppersurfer.tk%3A6969","udp%3A%2F%2Fexodus.desync.com%3A6969"],"infoHash":"5952441820a48e678097c0726dce318360fe9afc","infoHashBuffer":{"type":"Buffer","data":[89,82,68,24,32,164,142,103,128,151,192,114,109,206,49,131,96,254,154,252]},"announce":[],"urlList":[]}}